<svg width="62" height="85" viewBox="0 0 62 85" fill="none" xmlns="http://www.w3.org/2000/svg">
<path d="M26.62 43.5354C26.62 43.5354 25.0089 55.1928 23.5454 65.8679C23.2644 65.8872 22.9851 65.9256 22.7092 65.9828C21.3329 66.2669 20.0857 66.9958 19.159 68.0577C18.2322 69.1196 17.677 70.4559 17.5784 71.8618C17.4798 73.2676 17.8433 74.6654 18.6132 75.8408C19.383 77.0162 20.5167 77.9044 21.8405 78.3692C21.4813 81.0372 21.2434 82.8313 21.2153 83.1406C21.0503 84.897 22.7947 85.3374 23.1742 83.5252C23.2778 83.0282 23.6059 81.1326 24.0103 78.7259C24.4262 78.7232 24.841 78.6793 25.2487 78.595C26.6271 78.311 27.8762 77.5809 28.8037 76.517C29.7313 75.453 30.2861 74.1141 30.3828 72.706C30.4795 71.298 30.1127 69.8988 29.3389 68.7235C28.5651 67.5482 27.427 66.6619 26.0997 66.2009C27.31 58.0991 51.7603 1.41191 50.5807 0.399977C49.401 -0.611954 33.4176 30.1191 26.62 43.5354ZM28.578 71.3406C28.7606 72.2526 28.6695 73.1994 28.3161 74.0614C27.9627 74.9234 27.3629 75.6618 26.5925 76.1833C25.8222 76.7048 24.9159 76.986 23.9882 76.9912C23.0606 76.9965 22.1532 76.7256 21.3808 76.2129C20.6085 75.7002 20.0058 74.9686 19.649 74.1107C19.2923 73.2527 19.1974 72.3069 19.3765 71.3929C19.5556 70.4789 20.0005 69.6377 20.655 68.9756C21.3096 68.3135 22.1443 67.8603 23.0538 67.6733C23.6578 67.5491 24.2799 67.5455 24.8845 67.6625C25.489 67.7796 26.0643 68.0152 26.5773 68.3558C27.0903 68.6963 27.531 69.1352 27.8743 69.6474C28.2176 70.1595 28.4567 70.7349 28.578 71.3406Z" fill="#062D3E"/>
<path d="M12.6405 55.8996L11.462 56.685C10.6055 55.7725 9.50086 55.1322 8.28407 54.8427C7.06729 54.5533 5.7914 54.6274 4.6134 55.056C3.43539 55.4846 2.40665 56.2489 1.65373 57.2549C0.900811 58.2609 0.456572 59.4647 0.375649 60.7182C0.294726 61.9718 0.580634 63.2203 1.19824 64.3103C1.81585 65.4004 2.73819 66.2842 3.8518 66.8533C4.9654 67.4223 6.2217 67.6516 7.46611 67.5131C8.71053 67.3745 9.88879 66.8741 10.8559 66.0734C11.03 66.2018 11.1638 66.2979 11.2502 66.3586C12.8538 67.4775 13.8944 65.8565 12.4901 64.6164C12.4495 64.5799 12.3749 64.5159 12.2701 64.4302C13.1282 63.0101 13.4076 61.3143 13.0501 59.6969C12.9895 59.4215 12.9106 59.1505 12.8139 58.8857C21.9384 53.1933 31.9056 46.9537 31.9056 46.9537C41.3519 35.2522 62.8395 8.09995 61.4274 7.4344C60.0153 6.76885 18.4311 52.8592 12.6405 55.8996ZM11.3587 60.076C11.5588 60.9842 11.4859 61.9325 11.1492 62.8012C10.8124 63.6698 10.2269 64.4196 9.46673 64.956C8.70653 65.4923 7.80575 65.7909 6.87829 65.8142C5.95084 65.8375 5.03837 65.5843 4.25622 65.0867C3.47407 64.5891 2.85737 63.8694 2.4841 63.0187C2.11084 62.1679 1.99777 61.2242 2.15918 60.3069C2.3206 59.3897 2.74924 58.54 3.39093 57.8654C4.03263 57.1908 4.85856 56.7215 5.76428 56.5169C6.97922 56.2429 8.25106 56.464 9.30014 57.1314C10.3492 57.7988 11.0897 58.858 11.3587 60.076Z" fill="#062D3E"/>
<path d="M28.8492 43.92C28.9153 44.2167 29.0676 44.4869 29.2869 44.6963C29.5062 44.9057 29.7827 45.045 30.0814 45.0966C30.3802 45.1482 30.6877 45.1097 30.9653 44.9861C31.2429 44.8625 31.4781 44.6592 31.6412 44.402C31.8043 44.1448 31.8879 43.8451 31.8816 43.5409C31.8753 43.2366 31.7792 42.9414 31.6056 42.6925C31.432 42.4436 31.1886 42.2521 30.9061 42.1423C30.6236 42.0325 30.3148 42.0093 30.0185 42.0756C29.8211 42.1197 29.6342 42.2025 29.4686 42.3192C29.3029 42.4359 29.1617 42.5841 29.053 42.7555C28.9444 42.9269 28.8705 43.1179 28.8355 43.3178C28.8005 43.5176 28.8052 43.7222 28.8492 43.92Z" fill="#FBBD08"/>
</svg>
